<svg version="1.1" xmlns="http://www.w3.org/2000/svg" style="display: block;" viewBox="0 0 2048 2048" width="2000" height="2000" preserveAspectRatio="none">
<path transform="translate(0,0)" fill="rgb(255,255,255)" d="M 992.541 0 L 1050.74 0 C 1065.84 2.6046 1091.87 2.23931 1108.45 3.53447 C 1145.82 6.36763 1182.97 11.4942 1219.7 18.8851 C 1471.52 67.8939 1695.77 209.629 1848.09 416.051 C 1944.47 546.858 2008.43 698.673 2034.71 859.015 C 2039.47 887.674 2042.9 916.537 2044.99 945.513 C 2045.5 952.61 2047.05 988.799 2048 993.07 L 2048 1052.76 C 2046.58 1061.22 2046.82 1071.33 2046.42 1080 C 2045.74 1092.16 2044.89 1104.31 2043.86 1116.45 C 2040.44 1154.62 2034.84 1192.57 2027.07 1230.1 C 1976.3 1477.11 1836.16 1696.7 1633.51 1846.78 C 1501.77 1944.56 1348.4 2009.11 1186.39 2034.97 C 1159.24 2039.39 1131.91 2042.69 1104.48 2044.86 C 1095.77 2045.48 1059.9 2046.66 1053.6 2048 L 989.246 2048 C 983.013 2046.64 947.262 2045.08 938.247 2044.37 C 910.438 2042.03 882.74 2038.52 855.228 2033.84 C 694.919 2007.24 543.284 1942.73 412.947 1845.68 C 209.495 1694.37 69.4153 1472.96 19.8268 1224.31 C 12.2875 1187.02 6.92612 1149.32 3.76983 1111.4 C 2.30707 1093.18 2.74847 1068.17 0 1051.54 L 0 994.356 C 1.1806 989.062 2.22003 954.818 2.8298 946.169 C 5.05961 917.768 8.43818 889.469 12.9572 861.341 C 39.0307 699.691 103.393 546.622 200.67 414.912 C 350.504 212.419 569.738 72.28 816.426 21.3079 C 853.579 13.5397 891.139 7.86864 928.929 4.32161 C 948.193 2.64501 974.455 3.06693 992.541 0 z"/>
<path transform="translate(0,0)" fill="rgb(163,202,195)" d="M 987.242 98.3952 C 1498.28 78.1539 1929.03 475.918 1949.47 986.953 C 1969.91 1497.99 1572.31 1928.89 1061.29 1949.53 C 549.979 1970.18 118.789 1572.32 98.3357 1061 C 77.8826 549.681 475.916 118.648 987.242 98.3952 z"/>
<path transform="translate(0,0)" fill="rgb(255,255,255)" d="M 985.891 121.218 C 1484.49 100.236 1905.68 487.481 1926.56 986.089 C 1947.44 1484.7 1560.1 1905.8 1061.49 1926.58 C 563.023 1947.35 142.07 1560.15 121.197 1061.69 C 100.324 563.226 487.431 142.194 985.891 121.218 z"/>
<path transform="translate(0,0)" fill="rgb(163,202,195)" d="M 908.493 593.214 C 931.92 588.339 956.581 591.22 980.276 590.371 C 1002.7 589.568 1025.2 589.983 1047.49 589.623 C 1070.58 587.925 1093.63 585.432 1116.78 588.558 C 1134.53 590.954 1152.21 589.537 1170.01 590.905 C 1179.41 591.627 1182.81 595.625 1188.56 602.263 C 1189.48 618.644 1189.24 634.947 1189.68 651.296 C 1190.19 670.723 1191.1 686.566 1188.73 706.04 C 1177.39 723.357 1167.23 710.528 1166.37 736.078 C 1164.94 778.568 1187.03 774.481 1216.57 788.522 C 1235.61 797.572 1265.69 824.118 1277.34 842.414 C 1285.41 855.095 1298.29 886.327 1303.26 901.235 C 1305.87 909.075 1304.57 947.286 1304.6 957.898 L 1304.38 1098.23 L 1304.51 1268.49 C 1304.56 1298.63 1305.65 1329.21 1303.95 1359.27 C 1303.56 1366.24 1295.36 1383.55 1291.95 1390.37 C 1285.97 1402.34 1274.7 1412 1266.81 1422.76 C 1266.4 1422.88 1265.99 1422.99 1265.58 1423.13 C 1249.39 1428.3 1242.35 1439.18 1221.24 1442.24 C 1200.87 1445.18 1170.96 1442.86 1149.25 1443.12 C 1139.32 1443.23 1129.42 1444.61 1119.5 1444.63 C 1111.01 1444.65 1102.5 1443.4 1094.01 1443.79 C 1082.72 1444.3 1071.65 1445.93 1060.31 1445.89 C 1038.71 1445.83 1017.48 1443.44 995.988 1442.97 C 971.939 1442.44 866.773 1446.01 852.792 1440.59 C 824.562 1429.66 801.081 1412.56 788.376 1384.34 C 787.043 1381.37 784.844 1377.64 784.177 1374.52 C 783.339 1371.94 782.439 1370.08 781.211 1367.7 C 773.717 1353.15 776.835 1328.38 776.782 1312.01 L 777.032 1194.39 L 776.7 999.595 C 776.812 974.503 776.216 949.085 776.821 924.008 C 776.975 917.626 779.505 910.112 783.058 904.732 C 782.977 894.295 785.253 894.428 787.633 885.467 C 794.432 859.859 807.675 838.691 825.77 819.441 C 834.095 810.585 853.38 796.175 864.856 791.174 C 886.115 781.91 903.932 781.676 917.938 758.779 C 918.408 747.608 918.171 736.319 918.076 725.131 C 910.46 719.466 895.789 710.533 895.029 700.522 C 892.796 671.129 893.672 640.865 894.509 611.387 C 894.719 603.983 903.298 597.545 908.493 593.214 z"/>
<path transform="translate(0,0)" fill="rgb(191,218,213)" d="M 784.177 1374.52 C 783.339 1371.94 782.439 1370.08 781.211 1367.7 C 773.717 1353.15 776.835 1328.38 776.782 1312.01 L 777.032 1194.39 L 776.7 999.595 C 776.812 974.503 776.216 949.085 776.821 924.008 C 776.975 917.626 779.505 910.112 783.058 904.732 C 783.8 920.085 782.67 937.074 782.527 952.727 L 782.302 1047.77 L 784.177 1374.52 z"/>
<path transform="translate(0,0)" fill="rgb(255,255,255)" d="M 1273.05 1354.64 C 1272.47 1356.91 1271.65 1359.04 1270.77 1361.19 C 1263.9 1378.07 1251.85 1395.85 1234.32 1402.91 C 1210.17 1412.64 1044.97 1405.62 1006.87 1405.89 C 963.719 1406.2 920.232 1410.13 877.085 1408.03 C 867.653 1407.57 857.146 1406.29 848.552 1402.15 C 835.395 1395.81 821.017 1381.45 816.399 1367.36 C 813.69 1359.08 812.101 1349.85 811.693 1341.15 C 810.149 1308.25 811.696 1274.61 811.945 1241.67 L 811.947 1098.13 L 811.499 998.501 C 810.862 940.585 807.179 882.045 854.096 838.613 C 882.781 812.057 916.863 814.348 940.395 781.165 C 954.22 761.669 946.204 738.816 952.471 726.221 C 954.47 725.577 957.084 724.933 959.187 724.905 C 993.57 724.123 1027.47 723.854 1061.85 725.28 C 1080.61 726.058 1101.59 723.352 1120.58 724.254 C 1132.69 724.83 1132.78 735.793 1134.67 744.844 C 1136.43 753.296 1137.27 761.211 1137.62 769.687 C 1145.02 778.458 1144.23 782.083 1155.65 792.947 C 1176.67 812.952 1207.04 818.798 1226.63 835.276 C 1251.92 856.554 1271.74 902.077 1272.98 935.362 C 1279.59 955.826 1271.24 996.685 1275.35 1010.1 C 1279.66 1007.41 1278.71 999.772 1277.79 995.528 L 1278.51 993.606 L 1279.32 994.065 C 1279.73 1001.39 1280.07 1058.81 1278.3 1061.68 C 1276.45 1056.7 1276.97 1050.4 1274.56 1047.83 C 1274.51 1056.27 1273.7 1101.32 1274.87 1107.19 L 1275.48 1105.34 C 1276.22 1103.19 1276.28 1102.95 1277.94 1101.31 C 1278.84 1104.33 1279.49 1215.65 1277.96 1220.76 C 1275.87 1218.23 1277.37 1215.4 1275.62 1210.95 L 1276.41 1212.76 L 1274.9 1210.96 C 1273.78 1219.21 1274.26 1231.92 1274.31 1240.56 L 1274.64 1289.84 C 1274.67 1295.75 1273.9 1313.18 1274.7 1317.43 L 1275.76 1315.63 L 1275.73 1315.64 L 1277.12 1314.4 L 1277.21 1310.92 L 1278.24 1311.49 C 1279.19 1321.94 1281.14 1337.19 1278.37 1346.93 L 1277.26 1347.83 C 1275.2 1342.75 1276.65 1335.83 1275.52 1330.25 C 1275.06 1339.19 1276.12 1346.27 1273.05 1354.64 z"/>
<path transform="translate(0,0)" fill="rgb(191,218,213)" d="M 1272.98 935.362 C 1279.59 955.826 1271.24 996.685 1275.35 1010.1 C 1279.66 1007.41 1278.71 999.772 1277.79 995.528 L 1278.51 993.606 L 1279.32 994.065 C 1279.73 1001.39 1280.07 1058.81 1278.3 1061.68 C 1276.45 1056.7 1276.97 1050.4 1274.56 1047.83 C 1274.51 1056.27 1273.7 1101.32 1274.87 1107.19 L 1275.48 1105.34 C 1276.22 1103.19 1276.28 1102.95 1277.94 1101.31 C 1278.84 1104.33 1279.49 1215.65 1277.96 1220.76 C 1275.87 1218.23 1277.37 1215.4 1275.62 1210.95 L 1276.41 1212.76 L 1274.9 1210.96 C 1273.78 1219.21 1274.26 1231.92 1274.31 1240.56 L 1274.64 1289.84 C 1274.67 1295.75 1273.9 1313.18 1274.7 1317.43 L 1275.76 1315.63 L 1275.73 1315.64 L 1277.12 1314.4 L 1277.21 1310.92 L 1278.24 1311.49 C 1279.19 1321.94 1281.14 1337.19 1278.37 1346.93 L 1277.26 1347.83 C 1275.2 1342.75 1276.65 1335.83 1275.52 1330.25 C 1275.06 1339.19 1276.12 1346.27 1273.05 1354.64 C 1273.84 1342.67 1272.45 1316.83 1272.43 1303.31 C 1272.71 1264.35 1272.66 1225.39 1272.29 1186.44 C 1271.65 1103.1 1273.04 1018.79 1272.98 935.362 z"/>
<path transform="translate(0,0)" fill="rgb(163,202,195)" d="M 1019.66 928.441 C 1035.36 928.334 1051.37 927.833 1067.05 928.661 C 1084.78 929.598 1095.23 933.177 1104.47 948.693 C 1105.51 972.992 1104.41 999.349 1105.05 1024.2 C 1129.93 1027.18 1159.07 1019.66 1182.32 1029.99 C 1189.6 1033.23 1195.64 1038.22 1198.37 1045.9 C 1201.01 1053.33 1200.76 1120.25 1199.13 1130.42 C 1198.04 1137.23 1195.51 1142.61 1192.44 1148.69 C 1170.53 1162.22 1124.73 1149.38 1106.9 1158.52 C 1101.28 1164.64 1107.57 1215.04 1104.45 1227.1 C 1101.07 1240.2 1098.85 1241.98 1088.25 1249.44 C 1081.69 1250.07 1072.96 1249.95 1066.2 1250.04 C 1046.08 1249.64 1013.87 1251.2 995.429 1249.27 C 991.37 1245.96 987.345 1242.61 983.353 1239.23 C 980.979 1216.43 983.925 1192.86 982.31 1170.11 C 981.754 1162.28 978.875 1159.72 972.996 1155.33 C 946.096 1155.12 927.797 1154.37 901.184 1152.89 C 893.742 1147.96 890.999 1142.84 886.298 1135.43 C 884.382 1108.67 885.858 1076.28 886.226 1049.02 C 886.728 1011.97 978.257 1032.46 981.564 1020.12 C 985.516 1005.37 977.322 955.576 985.925 938.766 C 989.102 932.148 1013.57 929.426 1019.66 928.441 z"/>
<path transform="translate(0,0)" fill="rgb(115,114,114)" d="M 1252.31 1621.25 C 1260.04 1621.03 1268.46 1621.92 1275.49 1626.31 C 1311.57 1648.87 1338.48 1725.13 1318.35 1763.98 C 1312.4 1775.47 1299.68 1781.23 1287.74 1784.12 C 1241.82 1787.07 1221.11 1728.05 1213.6 1691.89 C 1206.78 1659.07 1214.31 1627.42 1252.31 1621.25 z"/>
<path transform="translate(0,0)" fill="rgb(255,255,255)" d="M 1250.6 1637.11 C 1277.06 1636.49 1292.21 1673.8 1298.78 1694.68 C 1306.18 1718.21 1318.09 1757.41 1286.73 1767.74 C 1259.27 1767.86 1244.72 1729.67 1237.76 1708.1 C 1230.42 1685.38 1220.04 1646.71 1250.6 1637.11 z"/>
<path transform="translate(0,0)" fill="rgb(115,114,114)" d="M 827.938 188.366 C 831.308 192.24 840.316 248.92 841.507 256.999 C 903.983 179.288 971.233 298.116 915.114 348.476 C 894.409 363.278 879 359.556 858.116 348.73 L 858.947 361.553 C 853.766 362.804 848.174 363.938 842.938 365.091 L 808.956 192.344 L 827.938 188.366 z"/>
<path transform="translate(0,0)" fill="rgb(255,255,255)" d="M 875.616 250.2 C 896.633 248.837 906.545 261.125 911.78 280.123 C 918.894 305.944 916.963 334.397 886.702 342.025 C 873.88 342.306 868.899 340.666 857.862 335.254 L 845.51 272.851 C 854.583 261.161 860.613 254.007 875.616 250.2 z"/>
<path transform="translate(0,0)" fill="rgb(115,114,114)" d="M 1002.43 178.941 C 1029.45 179.449 1074.94 175.779 1096.02 194.873 C 1113.17 210.402 1112.03 246.177 1095.23 262.104 C 1079.16 277.346 1060.75 277.605 1039.85 277.239 L 1020.29 276.977 L 1018.86 341.502 L 998.526 340.971 L 1002.43 178.941 z"/>
<path transform="translate(0,0)" fill="rgb(255,255,255)" d="M 1022.25 196.04 C 1045.93 196.327 1089.29 192.963 1087.8 227.12 C 1087.29 238.894 1085.76 244.559 1077.53 253.084 C 1060.73 263.682 1040.19 260.957 1020.83 260.252 L 1022.25 196.04 z"/>
<path transform="translate(0,0)" fill="rgb(115,114,114)" d="M 1203.68 241.341 C 1211.19 240.448 1220.05 241.052 1227.4 242.555 C 1258.6 248.934 1262.2 277.209 1255.91 303.186 C 1250.27 326.461 1244.84 349.287 1239.25 372.271 L 1222.94 368.279 C 1223.73 363.55 1224.22 358.315 1224.78 353.515 C 1221.84 354.857 1218.87 356.115 1215.86 357.286 C 1197.95 364.251 1187.69 364.878 1169.97 357.018 C 1159.54 349.901 1153.41 341.234 1154.2 328.225 C 1156.85 284.291 1207.6 290.605 1237.65 293.433 C 1238.42 287.48 1239.62 281.148 1238.08 275.322 C 1231.29 249.516 1200.22 257.242 1182.4 262.337 L 1178.05 246.942 C 1186.98 244.605 1194.47 242.462 1203.68 241.341 z"/>
<path transform="translate(0,0)" fill="rgb(255,255,255)" d="M 1202.73 305.326 C 1211.69 304.278 1225.14 305.705 1234.41 306.519 L 1226.48 339.201 C 1219.5 342.889 1214.5 344.698 1207.08 347.165 C 1194.38 348.758 1176.66 346.876 1174.18 331.248 C 1173.39 325.901 1174.78 320.461 1178.06 316.16 C 1184.39 307.702 1193.12 306.424 1202.73 305.326 z"/>
<path transform="translate(0,0)" fill="rgb(115,114,114)" d="M 715.911 281.271 C 738.876 279.516 751.898 297.641 760.008 316.438 C 769.446 338.316 778.736 360.254 787.992 382.21 L 772.871 388.593 L 765.341 375.717 C 754.1 395.212 737.183 416.947 710.076 410.141 C 700.472 407.729 694.301 399.419 689.816 390.958 C 676.283 356.554 714.874 334.781 739.606 320.318 C 722.233 281.367 694.239 304.784 676.968 327.986 L 664.208 318.213 C 678.81 298.887 691.151 285.614 715.911 281.271 z"/>
<path transform="translate(0,0)" fill="rgb(255,255,255)" d="M 744.207 333.043 C 746.788 334.757 756.279 358.936 758.12 363.311 C 749.361 381.314 740.975 391.861 719.748 393.217 C 709.113 389.232 707.213 383.363 704.758 373.121 C 709.522 352.375 727.114 343.093 744.207 333.043 z"/>
<path transform="translate(0,0)" fill="rgb(115,114,114)" d="M 975.719 1700.4 C 989.275 1699.41 1004.99 1705.93 1012.98 1717 C 1024.91 1733.51 1024.79 1751.99 1022.19 1771.16 C 996.948 1770.41 966.383 1767.57 940.912 1765.86 C 941.832 1800.84 966.343 1818.58 999.748 1807.18 L 1008.57 1802.99 L 1014.86 1816.97 C 974.826 1838.65 927.154 1823.18 921.844 1773.9 C 917.959 1737.85 936.278 1704.04 975.719 1700.4 z"/>
<path transform="translate(0,0)" fill="rgb(255,255,255)" d="M 969.281 1717.22 C 998.42 1714.67 1006.15 1729.25 1006.11 1756.04 C 998.168 1755.36 990.223 1754.74 982.273 1754.19 L 941.71 1751.66 C 946.332 1733.26 951.095 1724.55 969.281 1717.22 z"/>
<path transform="translate(0,0)" fill="rgb(115,114,114)" d="M 576.06 1509.16 C 613.732 1506.33 636.345 1532.2 643.539 1566.39 L 626.735 1570.41 C 623.047 1551.05 606.395 1526.18 586.547 1527.22 C 549.43 1529.16 568.195 1565.93 577.78 1581.9 C 592.38 1606.24 603.741 1632.68 580.882 1654.73 C 569.544 1665.68 559.281 1667.3 544.031 1666.74 C 511.583 1660.58 485.67 1631.95 483.453 1598.89 C 489.381 1597.75 495.318 1596.66 501.262 1595.61 C 501.472 1597.06 501.714 1598.51 501.988 1599.94 C 505.278 1617.01 514.525 1632.3 529.141 1642.02 C 534.229 1645.71 546.618 1650.92 553.255 1648.16 C 598.45 1629.24 550.17 1587.44 544.279 1558.48 C 539.302 1534 551.125 1514.68 576.06 1509.16 z"/>
<path transform="translate(0,0)" fill="rgb(115,114,114)" d="M 1489.97 292.956 C 1495.11 296.139 1501.69 300.945 1506.82 304.453 C 1492.92 325.001 1479.87 344.521 1465.03 364.433 C 1480.27 361.98 1494.27 360.59 1508.04 368.927 C 1535.07 385.294 1525.95 411.188 1511.58 432.472 C 1497.99 452.596 1484.4 472.553 1470.76 492.538 L 1454.06 481.281 C 1467.78 461.901 1481.71 440.445 1495.08 420.654 C 1503.09 408.342 1510.73 393.26 1495.59 381.974 C 1484.06 373.381 1470.32 375.574 1457.06 377.721 L 1408.2 450.07 L 1391.34 438.748 L 1489.97 292.956 z"/>
<path transform="translate(0,0)" fill="rgb(115,114,114)" d="M 1468.96 1493.79 C 1471.59 1494.87 1478.08 1504.08 1480.19 1506.84 L 1432.33 1544.75 L 1458.03 1583.88 C 1487.82 1526.2 1555.86 1556.79 1556.67 1608.53 C 1556.81 1622.83 1551.2 1636.59 1541.09 1646.71 C 1525.47 1662.54 1507.58 1666.57 1486.25 1666.6 C 1484.19 1666.28 1484.97 1666.51 1483.15 1665.26 C 1481.71 1660.74 1482.15 1654.7 1482.17 1649.79 C 1501.57 1650.59 1524.85 1647.26 1533.98 1627.23 C 1537.9 1618.62 1538.23 1608.81 1534.89 1599.96 C 1530.86 1589.16 1521.47 1578.39 1510.67 1574.01 C 1502.52 1570.75 1493.37 1571.05 1485.45 1574.85 C 1472.77 1580.85 1467.77 1591.7 1463.16 1603.79 C 1458.95 1603.95 1454.93 1604.51 1450.75 1605 L 1407.77 1542.2 L 1468.96 1493.79 z"/>
<path transform="translate(0,0)" fill="rgb(115,114,114)" d="M 1131.69 1651.22 C 1158.72 1649.59 1178.87 1661.7 1183.45 1689.88 C 1189.92 1729.68 1159.5 1770.85 1137.81 1801.36 C 1158.94 1795.37 1185.68 1791.58 1207.64 1787.85 C 1208.88 1793.38 1209.69 1799.83 1210.55 1805.5 C 1188.04 1808.34 1159.99 1813.81 1137.24 1817.62 C 1128.23 1819.11 1119.24 1820.69 1110.27 1822.38 L 1108.14 1810.53 C 1131.88 1780.6 1167.14 1737.91 1164.47 1697.37 C 1163.24 1678.62 1148.34 1664.15 1129.08 1668.2 C 1114.31 1671.3 1107.3 1680.49 1099.3 1692.18 L 1085.84 1682.98 C 1086.55 1681.84 1087.3 1680.72 1088.06 1679.61 C 1100.16 1662.23 1111.04 1655.06 1131.69 1651.22 z"/>
<path transform="translate(0,0)" fill="rgb(115,114,114)" d="M 1363.05 1573.36 C 1433.78 1580.08 1409.54 1675.74 1395.83 1719.09 C 1414.08 1706.56 1438.08 1694.09 1457.81 1683.23 L 1466.27 1698.6 L 1394.19 1738.14 L 1376.85 1747.56 L 1371.12 1737.38 C 1375.25 1725.67 1379.13 1713.87 1382.76 1701.99 C 1391.12 1674.04 1400.11 1636.05 1385.37 1608.6 C 1376.86 1592.76 1359.11 1586.47 1343.49 1596.39 C 1330.89 1604.4 1327.2 1615.19 1323.83 1628.78 L 1308.01 1624.07 C 1316.17 1594.5 1330.95 1576.62 1363.05 1573.36 z"/>
<path transform="translate(0,0)" fill="rgb(115,114,114)" d="M 705.748 1631.36 C 709.505 1632.66 717.152 1636.23 721.072 1637.92 L 715.849 1655.18 C 732.787 1648.86 745.1 1644.64 762.92 1652.06 C 790.058 1663.37 785.304 1689.9 776.07 1712.04 C 766.744 1734.41 757.24 1756.8 747.77 1779.15 L 729.161 1771.46 C 738.786 1749.55 748.127 1726.38 757.431 1704.25 C 773.251 1663.37 744.948 1656.84 711.868 1669.53 L 678.025 1749.86 C 672.015 1747.58 665.2 1744.53 659.195 1742.01 C 674.509 1708.85 691.367 1665.64 705.748 1631.36 z"/>
<path transform="translate(0,0)" fill="rgb(115,114,114)" d="M 516.107 345.026 C 519.031 347.973 537.322 375.182 540.278 379.479 L 598.438 463.859 L 656.802 423.604 L 666.797 438.07 L 651.104 448.837 L 591.612 489.801 L 499.546 356.344 L 516.107 345.026 z"/>
<path transform="translate(0,0)" fill="rgb(115,114,114)" d="M 1363.84 255.386 C 1367.3 256.476 1375.68 260.346 1379.38 261.95 L 1365.9 292.902 L 1395.94 305.978 L 1389.24 320.916 C 1379.31 316.777 1369.15 312.215 1359.25 307.92 C 1351.04 326.599 1342.71 345.369 1334.59 364.076 C 1324.72 386.806 1327.59 397.948 1353.52 400.554 C 1353.98 403.374 1352.15 412.772 1351.59 416.291 C 1344.1 415.152 1338.53 414.455 1331.43 411.881 C 1306.5 402.855 1304.89 382.197 1314.23 360.402 C 1322.96 340.028 1331.98 320.01 1340.92 299.864 L 1324.57 292.609 L 1330.61 278.846 L 1348.4 285.147 C 1353.55 275.897 1358.92 264.897 1363.84 255.386 z"/>
<path transform="translate(0,0)" fill="rgb(115,114,114)" d="M 857.376 1685.26 C 880.695 1684.08 892.521 1690.35 907.122 1708.19 L 894.105 1718.89 C 853.706 1666.52 800.496 1746.94 834.851 1783.91 C 841.622 1791.19 851.87 1793.73 861.405 1793.97 C 870.138 1792.69 874.018 1791.11 881.862 1787.74 L 887.394 1803.41 C 851.466 1819.16 810.755 1805.58 804.287 1764.64 C 798.368 1727.18 818.778 1691.23 857.376 1685.26 z"/>
<path transform="translate(0,0)" fill="rgb(115,114,114)" d="M 655.97 1602.14 L 673.452 1612.22 C 654.158 1646.38 632.529 1682 612.591 1715.96 L 595.142 1705.38 L 655.97 1602.14 z"/>
<path transform="translate(0,0)" fill="rgb(115,114,114)" d="M 679.497 1561.74 C 686.33 1559.23 693.918 1562.62 696.608 1569.39 C 699.298 1576.15 696.111 1583.83 689.422 1586.7 C 684.932 1588.62 679.751 1587.96 675.891 1584.97 C 672.031 1581.97 670.1 1577.12 670.85 1572.29 C 671.599 1567.46 674.91 1563.42 679.497 1561.74 z"/>
</svg>